HIERARCHY
ROOT SpineBase
{
  OFFSET 0.000000 0.000000 0.000000
  CHANNELS 6 Xposition Yposition Zposition Zrotation Xrotation Yrotation
  JOINT SpineMid
  {
    OFFSET 0.000000 25.816235 0.000000
    CHANNELS 3 Zrotation Xrotation Yrotation
    JOINT SpineShoulder
    {
      OFFSET 1.355802 19.096233 -1.499794
      CHANNELS 3 Zrotation Xrotation Yrotation
      JOINT Neck
      {
        OFFSET 0.238681 6.260649 -0.970393
        CHANNELS 3 Zrotation Xrotation Yrotation
        JOINT Head
        {
          OFFSET 2.792254 10.169148 6.035471
          CHANNELS 3 Zrotation Xrotation Yrotation
          End Site
          {
            OFFSET 0 0 0
          }
        }
      }
      JOINT ShoulderLeft
      {
        OFFSET -3.326371 -3.390757 16.846673
        CHANNELS 3 Zrotation Xrotation Yrotation
        JOINT ElbowLeft
        {
          OFFSET -1.351566 -27.086439 1.180627
          CHANNELS 3 Zrotation Xrotation Yrotation
          JOINT WristLeft
          {
            OFFSET -8.542660 -18.810587 -6.161757
            CHANNELS 3 Zrotation Xrotation Yrotation
            JOINT HandLeft
            {
              OFFSET 0.126362 -2.394517 0.921821
              CHANNELS 3 Zrotation Xrotation Yrotation
              JOINT HandTipLeft
              {
                OFFSET 0.137016 -2.503232 -0.635086
                CHANNELS 3 Zrotation Xrotation Yrotation
                End Site
                {
                  OFFSET 0 0 0
                }
              }
              JOINT ThumbLeft
              {
                OFFSET 0.721969 0.355355 0.328702
                CHANNELS 3 Zrotation Xrotation Yrotation
                End Site
                {
                  OFFSET 0 0 0
                }
              }
            }
          }
        }
      }
      JOINT ShoulderRight
      {
        OFFSET 3.083323 -1.077726 -6.627932
        CHANNELS 3 Zrotation Xrotation Yrotation
        JOINT ElbowRight
        {
          OFFSET -12.025472 -24.033136 -1.088129
          CHANNELS 3 Zrotation Xrotation Yrotation
          JOINT WristRight
          {
            OFFSET -6.670728 -16.846692 8.813008
            CHANNELS 3 Zrotation Xrotation Yrotation
            JOINT HandRight
            {
              OFFSET -0.069527 -2.269925 5.754782
              CHANNELS 3 Zrotation Xrotation Yrotation
              JOINT HandTipRight
              {
                OFFSET 0.028108 -2.441205 1.291700
                CHANNELS 3 Zrotation Xrotation Yrotation
                End Site
                {
                  OFFSET 0 0 0
                }
              }
              JOINT ThumbRight
              {
                OFFSET 0.248240 -2.845218 -1.787547
                CHANNELS 3 Zrotation Xrotation Yrotation
                End Site
                {
                  OFFSET 0 0 0
                }
              }
            }
          }
        }
      }
    }
  }
  JOINT HipLeft
  {
    OFFSET -2.423001 0.677401 -2.736585
    CHANNELS 3 Zrotation Xrotation Yrotation
    JOINT KneeLeft
    {
      OFFSET 6.036794 -39.762722 2.765506
      CHANNELS 3 Zrotation Xrotation Yrotation
      JOINT AnkleLeft
      {
        OFFSET 4.870435 -27.892612 6.565258
        CHANNELS 3 Zrotation Xrotation Yrotation
        JOINT FootLeft
        {
          OFFSET -5.314023 -7.104816 2.309254
          CHANNELS 3 Zrotation Xrotation Yrotation
          End Site
          {
            OFFSET 0 0 0
          }
        }
      }
    }
  }
  JOINT HipRight
  {
    OFFSET 1.108053 0.752443 -3.153968
    CHANNELS 3 Zrotation Xrotation Yrotation
    JOINT KneeRight
    {
      OFFSET -2.062934 -35.416752 0.968863
      CHANNELS 3 Zrotation Xrotation Yrotation
      JOINT AnkleRight
      {
        OFFSET 4.574619 -33.079593 2.804965
        CHANNELS 3 Zrotation Xrotation Yrotation
        JOINT FootRight
        {
          OFFSET -5.610695 -4.450714 -0.934159
          CHANNELS 3 Zrotation Xrotation Yrotation
          End Site
          {
            OFFSET 0 0 0
          }
        }
      }
    }
  }
}
MOTION
Frames: 6
Frame Time: 0.033333
73.386513 75.105206 312.273579 -0.000000 0.000000 6.741285 -0.000000 0.000000 -6.741285 -0.000000 0.000000 0.000000 -0.000000 0.000000 0.000000 0.000000 0.000000 0.000000 -0.000000 0.000000 0.000000 -0.000000 0.000000 0.000000 -0.000000 0.000000 0.000000 -0.000000 0.000000 0.000000 0.000000 0.000000 0.000000 0.000000 0.000000 0.000000 -0.000000 0.000000 0.000000 -0.000000 0.000000 0.000000 -0.000000 0.000000 0.000000 -0.000000 0.000000 0.000000 0.000000 0.000000 0.000000 0.000000 0.000000 0.000000 -0.000000 0.000000 -6.741285 -0.000000 0.000000 0.000000 -0.000000 0.000000 0.000000 0.000000 0.000000 0.000000 -0.000000 0.000000 -6.741285 -0.000000 0.000000 0.000000 -0.000000 0.000000 0.000000 0.000000 0.000000 0.000000
73.465446 75.179048 312.190868 -0.535187 -0.351761 11.699681 0.595403 0.235912 -11.702549 0.390863 0.738129 0.029959 -0.391281 -0.737907 -0.034996 0.000000 0.000000 0.000000 -0.391281 -0.737907 -0.034996 -0.450981 1.733980 -0.628732 0.938574 -10.120229 0.397749 -2.181702 -5.653050 0.057513 0.000000 0.000000 0.000000 0.000000 0.000000 0.000000 -0.391281 -0.737907 -0.034996 -0.307655 1.693969 -0.832740 1.257873 -0.619518 3.271115 -0.262879 7.964944 -2.167405 0.000000 0.000000 0.000000 0.000000 0.000000 0.000000 1.135998 -0.635364 -11.764353 1.465384 -0.727854 0.320147 -4.360745 5.935234 -4.117882 0.000000 0.000000 0.000000 0.595403 0.235912 -11.702549 -0.000000 0.000000 0.000000 16.718700 -8.077418 9.794560 0.000000 0.000000 0.000000
73.517536 75.230575 312.124453 -1.014391 -0.675149 15.824844 2.404174 0.686149 -15.804273 -0.393597 0.722688 0.010746 0.187583 -1.428014 -0.567093 0.000000 0.000000 0.000000 -0.718618 -1.362618 -0.067840 -0.791917 3.002199 -1.070984 1.482329 -15.661884 0.709124 -3.266233 -11.928047 -0.035909 0.000000 0.000000 0.000000 0.000000 0.000000 0.000000 -0.718618 -1.362618 -0.067840 -0.463003 3.060930 -1.460150 1.995638 -1.298759 5.437497 0.180638 14.707026 -3.550527 0.000000 0.000000 0.000000 0.000000 0.000000 0.000000 1.987434 -1.203603 -15.939054 2.666943 -1.312852 0.580386 -7.299544 10.547094 -6.997680 0.000000 0.000000 0.000000 1.160077 0.372839 -15.834595 -0.000000 0.000000 0.000000 35.712301 -12.842809 21.936228 0.000000 0.000000 0.000000
73.542784 75.259786 312.074334 -1.436354 -0.969324 19.208308 3.440774 0.741280 -19.183208 -0.587991 1.012904 0.005409 0.229490 -1.994597 -0.744271 0.000000 0.000000 0.000000 -0.982017 -1.874531 -0.096534 -1.029330 3.780746 -1.326641 1.650446 -18.643190 0.802652 -3.490088 -16.940744 -0.234854 0.000000 0.000000 0.000000 0.000000 0.000000 0.000000 -0.982017 -1.874531 -0.096534 -0.478866 4.098715 -1.889090 2.339272 -1.971267 6.716676 0.884308 20.070251 -4.353602 0.000000 0.000000 0.000000 0.000000 0.000000 0.000000 2.609659 -1.624579 -19.357809 3.523132 -1.708781 0.766883 -9.056769 13.993966 -9.090632 0.000000 0.000000 0.000000 1.675333 0.442517 -19.226929 -0.000000 0.000000 0.000000 51.241972 -13.527944 31.853363 0.000000 0.000000 0.000000
73.541189 75.266682 312.040512 -1.800091 -1.233614 21.927427 4.329164 0.685391 -21.896222 -0.779626 1.256631 -0.005421 0.233429 -2.461846 -0.852754 0.000000 0.000000 0.000000 -1.181488 -2.274095 -0.119463 -1.167069 4.055691 -1.396269 1.416750 -19.828850 0.617890 -2.990303 -20.580467 -0.460800 0.000000 0.000000 0.000000 0.000000 0.000000 0.000000 -1.181488 -2.274095 -0.119463 -0.364509 4.807948 -2.124022 2.347252 -2.601493 7.219232 1.597376 24.144582 -4.623270 0.000000 0.000000 0.000000 0.000000 0.000000 0.000000 3.049495 -1.844497 -22.098567 3.977911 -1.885714 0.868266 -9.735636 16.417458 -10.668502 0.000000 0.000000 0.000000 2.130564 0.471623 -21.955577 -0.000000 0.000000 0.000000 61.477957 -12.469468 37.806558 0.000000 0.000000 0.000000
73.512752 75.251263 312.022985 -2.104886 -1.467502 24.036257 5.057697 0.565310 -23.996428 -0.967940 1.454383 -0.020721 0.197727 -2.829314 -0.893885 0.000000 0.000000 0.000000 -1.317033 -2.561717 -0.135388 -1.205727 3.821496 -1.280772 0.740712 -19.472383 0.129496 -1.786315 -23.152983 -0.661101 0.000000 0.000000 0.000000 0.000000 0.000000 0.000000 -2.142582 -2.634546 -0.098196 0.705830 5.264595 -2.242151 2.037583 -3.176617 6.985905 2.182770 27.093198 -4.332318 0.000000 0.000000 0.000000 0.000000 0.000000 0.000000 3.342437 -1.826726 -24.215104 4.002495 -1.829707 0.878245 -9.374822 17.927742 -11.884064 0.000000 0.000000 0.000000 2.520103 0.482049 -24.073821 -0.000000 0.000000 0.000000 67.631676 -11.269244 40.584308 0.000000 0.000000 0.000000
